kinematics
version=1
nRows=74
nColumns=17
inDegrees=yes
endheader
time	hip_flexion_l	hip_flexion_r	knee_angle_l	knee_angle_r	ankle_angle_l	ankle_angle_r	lumbar_extension	pelvis_tilt	arm_flex_l	arm_flex_r	elbow_flexion_l	elbow_flexion_r	head_flexion	pelvis_tx	pelvis_ty	pelvis_tz
1.901900	11.282983	1.635783	1.883967	-0.485269	20.808298	-8.048395	0.411568	0.665175	8.070190	7.163360	16.823670	1.143085	-107.814032	6.599474	3.563345	0.000000
1.918583	11.058284	1.094929	1.426022	-1.914541	19.829688	-6.353268	0.783125	0.442943	8.494032	7.463330	17.015388	2.352129	-123.451751	6.596773	3.564568	0.000000
1.935267	10.799057	0.622464	1.057238	-3.166242	18.799933	-4.507328	1.102228	0.250247	8.889678	7.724747	17.205099	3.405568	-136.750987	6.594837	3.566049	0.000000
1.951950	10.436096	0.191471	0.878772	-4.065659	17.648075	-2.741285	1.353482	0.095727	9.240603	7.909866	17.377734	4.202217	-146.639605	6.592996	3.567654	0.000000
1.968633	9.940016	-0.240583	0.910510	-4.555927	16.309591	-1.474328	1.540643	-0.022736	9.535521	8.000310	17.513879	4.715371	-153.501023	6.590661	3.569087	0.000000
1.985317	9.350758	-0.674653	1.092935	-4.714943	14.710087	-1.094376	1.672549	-0.110120	9.767068	7.998418	17.595423	4.972131	-158.129999	6.587407	3.570058	0.000000
2.002000	8.749318	-1.078684	1.327145	-4.675127	12.768017	-1.672500	1.755270	-0.169836	9.929860	7.922501	17.605664	5.023928	-161.193414	6.583013	3.570434	0.000000
2.018683	8.205441	-1.423411	1.537756	-4.543246	10.443588	-2.892340	1.791823	-0.203584	10.017721	7.797340	17.524922	4.923588	-163.155435	6.577463	3.570305	0.000000
2.035367	7.745827	-1.700417	1.714266	-4.374614	7.801096	-4.259882	1.784655	-0.212738	10.023680	7.642231	17.329870	4.710585	-164.335766	6.570930	3.569989	0.000000
2.052050	7.354944	-1.917890	1.917200	-4.188199	5.010538	-5.374010	1.737165	-0.199209	9.943133	7.465165	17.000065	4.408621	-164.966392	6.563716	3.570032	0.000000
2.068733	6.994754	-2.084121	2.263901	-3.994574	2.288057	-6.042365	1.653239	-0.165186	9.777589	7.268987	16.528103	4.038310	-165.230406	6.556133	3.571172	0.000000
2.085417	6.627976	-2.193738	2.907449	-3.815820	-0.161965	-6.248624	1.536898	-0.112929	9.536707	7.062192	15.925113	3.633734	-165.258219	6.548394	3.574220	0.000000
2.102100	6.233339	-2.236385	4.015159	-3.682029	-2.179887	-6.084757	1.394637	-0.046093	9.236208	6.860246	15.212916	3.243429	-165.100305	6.540580	3.579866	0.000000
2.118783	5.809046	-2.220318	5.554779	-3.611113	-3.670572	-5.697357	1.238002	0.028829	8.891453	6.676045	14.406356	2.913262	-164.749703	6.532712	3.588483	0.000000
2.135467	5.370080	-2.178106	7.351110	-3.597779	-4.615732	-5.241344	1.081581	0.103630	8.511955	6.513190	13.503160	2.670356	-164.223042	6.524853	3.600012	0.000000
2.152150	4.939478	-2.150030	9.445409	-3.637487	-5.079947	-4.842923	0.938074	0.171168	8.100684	6.368996	12.486512	2.521807	-163.615518	6.517153	3.613932	0.000000
2.168833	4.531163	-2.168891	11.616651	-3.700943	-5.208431	-4.576515	0.815662	0.226841	7.656533	6.240434	11.330425	2.463548	-163.074402	6.509841	3.629271	0.000000
2.185517	4.134936	-2.252706	13.562394	-3.739672	-5.197474	-4.452796	0.717477	0.268886	7.179822	6.125694	10.011402	2.486392	-162.741036	6.503169	3.644719	0.000000
2.202200	3.720904	-2.396460	15.003189	-3.746125	-5.223686	-4.422823	0.640536	0.298982	6.681075	6.021410	8.534477	2.572838	-162.716540	6.497323	3.658953	0.000000
2.218883	3.264083	-2.565702	15.778838	-3.743040	-5.365921	-4.400195	0.575351	0.322464	6.186796	5.922143	6.957805	2.695635	-163.043738	6.492340	3.671021	0.000000
2.235567	2.766279	-2.707315	15.865648	-3.775613	-5.570795	-4.286599	0.509156	0.346515	5.735786	5.825830	5.391509	2.830241	-163.700777	6.488061	3.680563	0.000000
2.252250	2.254264	-2.781614	15.347146	-3.883505	-5.679850	-3.986154	0.432895	0.376229	5.367200	5.738421	3.965512	2.970015	-164.613376	6.484207	3.687884	0.000000
2.268933	1.762547	-2.785786	14.158173	-4.083850	-5.503721	-3.413031	0.346470	0.411661	5.106279	5.670941	2.783213	3.126499	-165.672179	6.480500	3.693916	0.000000
2.285617	1.322820	-2.742294	11.529621	-4.382049	-4.912051	-2.509893	0.256969	0.448825	4.956270	5.633173	1.891542	3.319412	-166.751509	0.000000	0.000000	0.000000
2.302300	0.962943	-2.673764	9.139019	-4.781666	-3.904562	-1.275119	0.173268	0.482726	4.902213	5.630482	1.283713	3.568888	-167.742376	0.000000	0.000000	0.000000
2.318983	0.705565	-2.593112	7.025982	-5.273856	-2.620227	0.227500	0.102582	0.509305	4.921734	5.664059	0.919979	3.890744	-168.582976	0.000000	0.000000	0.000000
2.335667	0.562739	-2.508175	5.150609	-5.823621	-1.249089	1.883377	0.049618	0.525915	4.993887	5.732913	0.747567	4.294872	-169.248788	0.000000	0.000000	0.000000
2.352350	0.527599	-2.429326	3.517805	-6.373690	0.125830	3.545977	0.017499	0.530797	5.101941	5.836110	0.713913	4.787752	-169.723084	0.000000	0.000000	0.000000
2.369033	0.569193	-2.372834	2.073211	-6.865866	1.680117	5.051119	0.009556	0.522078	5.232031	5.971953	0.771510	5.372393	-170.004753	0.000000	0.000000	0.000000
2.385717	0.638331	-2.359341	0.638728	-7.261451	4.004831	6.237064	0.030548	0.497080	5.371558	6.133854	0.878298	6.042041	-170.137698	0.000000	0.000000	0.000000
2.402400	0.683161	-2.409707	-0.676300	-7.547544	8.413456	6.971760	0.086452	0.452442	5.507813	6.308877	0.998131	6.775458	-170.208481	0.000000	0.000000	0.000000
2.419083	0.665095	-2.539067	-1.772364	-7.732772	17.396647	7.166215	0.182820	0.385042	5.627806	6.482226	1.100769	7.541659	-170.317183	0.000000	0.000000	0.000000
2.435767	0.569068	-2.750229	-2.592845	-7.840805	33.512531	6.764143	0.322319	0.293381	5.724180	6.643302	1.166740	8.310440	-170.559766	0.000000	0.000000	0.000000
2.452450	0.408848	-3.026966	-3.144775	-7.906202	52.412314	5.730479	0.501643	0.179321	5.803354	6.789050	1.198209	9.059497	-171.043763	0.000000	0.000000	0.000000
2.469133	0.227995	-3.327603	-3.489421	-7.973166	64.837881	4.067062	0.708621	0.049709	5.884025	6.924192	1.221245	9.775506	-171.908858	0.000000	0.000000	0.000000
2.485817	0.094250	-3.581807	-3.713008	-8.096586	69.723519	1.860581	0.922079	-0.083546	5.985430	7.058640	1.272656	10.451472	-173.295660	0.000000	0.000000	0.000000
2.502500	0.085542	-3.695920	-3.900416	-8.342267	69.227699	-0.681485	1.116190	-0.205922	6.116196	7.203345	1.381112	11.082534	-175.264862	0.000000	0.000000	0.000000
2.519183	0.270652	-3.571708	-4.119724	-8.778717	64.353881	-3.278952	1.267399	-0.304166	6.270202	7.366121	1.552779	11.661662	-177.736603	0.000000	0.000000	0.000000
2.535867	0.693304	-3.135875	-4.415227	-9.459988	55.444000	-5.701913	1.359737	-0.369297	6.428765	7.546787	1.769235	12.173729	179.469949	0.000000	0.000000	0.000000
2.552550	1.368661	-2.362311	-4.809296	-10.418267	43.661963	-7.848089	1.385788	-0.397139	6.567409	7.733124	2.000145	12.587691	176.524242	0.000000	0.000000	0.000000
2.569233	2.289491	-1.268756	-5.309617	-11.682046	31.722505	-9.702974	1.344026	-0.386832	6.665815	7.902842	2.221195	12.855442	173.548889	0.000000	0.000000	0.000000
2.585917	3.426581	0.096060	-5.909908	-13.299013	22.126322	-11.259058	1.237397	-0.340034	6.716268	8.031639	2.423540	12.925988	170.677306	0.000000	0.000000	0.000000
2.602600	4.723488	1.650298	-6.585428	-15.336583	15.521620	-12.491980	1.075388	-0.262085	6.722544	8.100768	2.608911	12.768877	168.058268	0.000000	0.000000	0.000000
2.619283	6.100290	3.274384	-7.294742	-17.867269	11.369591	-13.385528	0.875371	-0.162758	6.690670	8.099710	2.777514	12.388929	165.785945	0.000000	0.000000	0.000000
2.635967	7.457219	4.817028	-7.981360	-20.947585	8.912731	-13.944517	0.662789	-0.056366	6.625636	8.024330	2.921205	11.821284	163.884134	0.000000	0.000000	0.000000
2.652650	8.671112	6.114803	-8.569387	-23.426731	7.518548	-14.182987	0.471510	0.038043	6.536594	7.874219	3.026039	11.116507	162.377497	0.000000	0.000000	0.000000
2.669333	9.612691	7.038357	-8.969970	-25.424208	6.725304	-14.116441	0.337415	0.100286	6.437305	7.653458	3.081083	10.331350	161.321237	0.000000	0.000000	0.000000
2.686017	10.192203	7.542391	-9.106836	-27.323508	6.228456	-13.773654	0.283718	0.117305	6.339365	7.375313	3.087721	9.526620	160.744543	0.000000	0.000000	0.000000
2.702700	10.394603	7.672027	-8.942745	-29.023183	5.870472	-13.218705	0.309953	0.089363	6.249307	7.066074	3.061490	8.762722	160.615912	0.000000	0.000000	0.000000
2.719383	10.276096	7.521691	-8.489939	-30.338568	5.618498	-12.563974	0.393938	0.028936	6.172337	6.760579	3.025216	8.086456	160.872085	0.000000	0.000000	0.000000
2.736067	9.933720	7.181481	-7.806268	-30.984963	5.507497	-11.956117	0.504839	-0.046632	6.114447	6.489366	3.002331	7.516901	161.458007	0.000000	0.000000	0.000000
2.752750	9.474007	6.704986	-6.984548	-30.655069	5.577152	-11.529842	0.618473	-0.123737	6.079602	6.267663	3.016436	7.042939	162.340857	0.000000	0.000000	0.000000
2.769433	8.994764	6.113037	-6.225964	-29.174740	5.838085	-11.347302	0.723997	-0.196281	6.067497	6.095225	3.092167	6.633646	163.494138	0.000000	0.000000	0.000000
2.786117	8.575810	5.422164	-5.594548	-26.632398	6.261690	-11.369588	0.819108	-0.262969	6.076474	5.965103	3.252510	6.255280	164.881569	0.000000	0.000000	0.000000
2.802800	8.269152	4.667760	-5.085981	-23.371028	6.784179	-11.495412	0.902666	-0.323159	6.109525	5.871403	3.515947	5.886107	166.452680	0.000000	0.000000	0.000000
2.819483	8.091747	3.901143	-4.742720	-18.395730	7.334283	-11.631134	0.972673	-0.375728	6.177865	5.810130	3.897669	5.520942	168.126725	0.000000	0.000000	0.000000
2.836167	8.029822	3.168768	-4.561991	-13.489836	7.872958	-11.724529	1.028628	-0.420393	6.298851	5.776608	4.414350	5.166420	169.795117	0.000000	0.000000	0.000000
2.852850	8.054655	2.498535	-4.505871	-9.787292	8.409314	-11.749442	1.073430	-0.458785	6.488241	5.765394	5.084457	4.836360	171.370257	0.000000	0.000000	0.000000
2.869533	8.141219	1.905431	-4.525696	-7.123460	8.981642	-11.674767	1.111641	-0.493469	6.750577	5.773424	5.916691	4.550727	172.815922	0.000000	0.000000	0.000000
2.886217	8.277018	1.402102	-4.584796	-5.269491	9.624871	-11.433946	1.146092	-0.526039	7.074428	5.801150	6.893903	4.330564	174.114627	0.000000	0.000000	0.000000
2.902900	8.458252	0.998379	-4.665991	-4.070469	10.342265	-10.897302	1.176494	-0.556331	7.435011	5.849064	7.966902	4.186846	175.228387	0.000000	0.000000	0.000000
2.919583	8.683836	0.694475	-4.764795	-3.399981	11.089246	-9.851719	1.200130	-0.582818	7.801549	5.914143	9.065580	4.113509	176.109817	0.000000	0.000000	0.000000
2.936267	8.952277	0.477917	-4.877257	-2.973873	11.780499	-7.970246	1.213467	-0.603510	8.146307	5.989905	10.121158	4.090817	176.744859	0.000000	0.000000	0.000000
2.952950	9.259961	0.328106	-4.988849	-2.761142	12.321273	-4.772213	1.213147	-0.616519	8.452722	6.068911	11.087871	4.094594	177.181187	0.000000	0.000000	0.000000
2.969633	9.599143	0.224774	-5.067093	-2.732600	12.641998	0.331100	1.196128	-0.620132	8.719966	6.145024	11.956657	4.104305	177.511556	0.000000	0.000000	0.000000
2.986317	9.951905	0.151334	-5.059573	-2.856376	12.718395	7.680198	1.161376	-0.613768	8.957646	6.213794	12.745939	4.106470	177.822339	0.000000	0.000000	0.000000
3.003000	10.285115	0.093670	-4.900778	-3.090781	12.581751	16.517540	1.111728	-0.599023	9.171643	6.272110	13.470146	4.094492	178.160521	0.000000	0.000000	0.000000
3.019683	10.555473	0.039747	-4.527005	-3.382471	12.327712	24.503519	1.052672	-0.578985	9.357287	6.318861	14.121489	4.067377	178.538791	0.000000	0.000000	0.000000
3.036367	10.717895	-0.019922	-3.886489	-3.674935	12.103787	29.132418	0.989966	-0.556894	9.505537	6.356313	14.677491	4.028317	178.948015	0.000000	0.000000	0.000000
3.053050	10.729391	-0.090195	-2.940016	-3.924692	12.046391	29.412357	0.928530	-0.535517	9.607586	6.389839	15.107583	3.981544	179.364459	0.000000	0.000000	0.000000
3.069733	10.558195	-0.169189	-1.673296	-4.113718	12.198541	25.753317	0.871384	-0.516555	9.653204	6.425058	15.374179	3.927773	179.762483	0.000000	0.000000	0.000000
3.086417	10.198926	-0.251427	-0.120523	-4.247879	12.471201	19.397465	0.818338	-0.499899	9.634482	6.465196	15.448118	3.863932	-179.870018	0.000000	0.000000	0.000000
3.103100	9.674390	-0.335103	1.645013	-4.345379	12.662913	12.199754	0.766778	-0.484079	9.554001	6.510253	15.328605	3.788801	-179.525218	0.000000	0.000000	0.000000
3.119783	9.020946	-0.427354	3.557944	-4.425656	12.522430	5.993061	0.714643	-0.467937	9.424631	6.557250	15.041091	3.707971	-179.180237	0.000000	0.000000	0.000000
